<svg xmlns="http://www.w3.org/2000/svg" width="70" height="70">
    <path fill="#F60" fill-rule="evenodd" d="M34.999 70c-19.33 0-35-15.671-35-35 0-19.331 15.67-35.001 35-35.001s35 15.67 35 35.001c0 19.329-15.67 35-35 35zM23.336 26.56h-4.419l.203 11.304-.048.048-6.98-11.352H8.114v18.058h4.418l-.13-10.958.059-.024 6.873 10.982h4.002V26.56zm14.973 6.123c-1.39-1.366-3.125-2.05-5.205-2.05-2.081 0-3.812.684-5.193 2.05-1.399 1.366-2.097 3.085-2.097 5.157 0 2.065.698 3.78 2.097 5.146 1.381 1.365 3.112 2.048 5.193 2.048 2.08 0 3.815-.683 5.205-2.048 1.397-1.366 2.096-3.081 2.096-5.146 0-2.072-.699-3.791-2.096-5.157zm8.862 7.79h-4.216v4.145h4.216v-4.145zM58.975 26.56h-7.564v3.883h2.954v14.175h4.61V26.56zM33.104 41.247c-.922 0-1.696-.337-2.323-1.013-.612-.667-.917-1.465-.917-2.394 0-.937.305-1.735.917-2.394.627-.683 1.401-1.024 2.323-1.024.928 0 1.707.341 2.334 1.024.612.659.917 1.457.917 2.394 0 .929-.305 1.727-.917 2.394-.627.676-1.406 1.013-2.334 1.013z"/>
</svg>
