<?xml version="1.0" encoding="utf-8"?>
<!-- Generator: Adobe Illustrator 16.0.0, SVG Export Plug-In . SVG Version: 6.00 Build 0)  -->
<!DOCTYPE svg PUBLIC "-//W3C//DTD SVG 1.1//EN" "http://www.w3.org/Graphics/SVG/1.1/DTD/svg11.dtd">
<svg version="1.1" id="Layer_1" xmlns="http://www.w3.org/2000/svg" xmlns:xlink="http://www.w3.org/1999/xlink" x="0px" y="0px"
	 width="200px" height="200px" viewBox="0 0 200 200" enable-background="new 0 0 200 200" xml:space="preserve">
<path fill="#FFFFFF" d="M200,56.245H46.752L34.379,5.199H0v7.293h28.646L64.2,159.143c-7.582,2.209-13.154,9.131-13.154,17.428
	c0,10.062,8.161,18.23,18.231,18.23c10.069,0,18.23-8.17,18.23-18.23c0-4.122-1.42-7.893-3.728-10.938h51.206
	c-2.307,3.048-3.721,6.816-3.721,10.938c0,10.062,8.154,18.23,18.223,18.23c10.076,0,18.238-8.17,18.238-18.23
	c0-10.075-8.162-18.229-18.229-18.229l0,0H71.503l-3.536-14.586H170.34L200,56.245z M80.217,176.57
	c0,6.031-4.907,10.938-10.939,10.938c-6.032,0-10.939-4.907-10.939-10.938c0-6.033,4.907-10.939,10.939-10.939
	C75.31,165.631,80.217,170.537,80.217,176.57z M160.436,176.57c0,6.031-4.908,10.938-10.947,10.938
	c-6.024,0-10.932-4.907-10.932-10.938c0-6.033,4.906-10.939,10.932-10.939C155.527,165.631,160.436,170.537,160.436,176.57z
	 M66.2,136.461L48.522,63.538H189.83l-24.719,72.923H66.2z"/>
</svg>
