<svg 
 xmlns="http://www.w3.org/2000/svg"
 xmlns:xlink="http://www.w3.org/1999/xlink"
 width="12px" height="12px">
<path fill-rule="evenodd"  fill="rgb(102, 102, 102)"
 d="M7.227,8.957 C6.658,8.957 6.192,9.414 6.192,9.982 C6.192,10.555 6.658,11.016 7.227,11.016 C7.793,11.016 8.262,10.555 8.262,9.982 C8.262,9.414 7.793,8.957 7.227,8.957 L7.227,8.957 ZM0.342,0.018 C0.152,0.018 -0.003,0.175 -0.003,0.362 C-0.003,0.557 0.152,0.708 0.342,0.708 L1.779,0.708 L3.103,7.983 C3.130,8.149 3.275,8.267 3.442,8.267 L8.262,8.267 C8.451,8.267 8.602,8.110 8.602,7.923 C8.602,7.733 8.451,7.577 8.262,7.577 L3.726,7.577 L3.475,6.205 L8.947,6.205 C9.085,6.205 9.214,6.123 9.264,5.994 L10.990,1.872 C11.035,1.763 11.023,1.646 10.956,1.545 C10.894,1.451 10.784,1.395 10.672,1.395 L2.602,1.395 L2.401,0.303 C2.373,0.140 2.229,0.018 2.061,0.018 L0.342,0.018 L0.342,0.018 ZM4.472,8.957 C3.904,8.957 3.442,9.414 3.442,9.982 C3.442,10.555 3.904,11.016 4.472,11.016 C5.045,11.016 5.506,10.555 5.506,9.982 C5.506,9.414 5.045,8.957 4.472,8.957 L4.472,8.957 Z"/>
</svg>