<svg xmlns="http://www.w3.org/2000/svg" width="41" height="41">
    <path fill-rule="evenodd" fill="#FFF" d="M20.5 41C9.196 41 0 31.804 0 20.5S9.196 0 20.5 0 41 9.196 41 20.5 31.804 41 20.5 41zm0-40C9.748 1 1 9.748 1 20.5S9.748 40 20.5 40 40 31.252 40 20.5 31.252 1 20.5 1zm8.737 20.592a2.912 2.912 0 0 1-2.912-2.912 2.913 2.913 0 0 1-5.825 0 2.912 2.912 0 0 1-5.825 0 2.912 2.912 0 1 1-5.824 0l2.048-5.461h19.202l2.048 5.461a2.912 2.912 0 0 1-2.912 2.912zm-.728-9.465H12.491a1.092 1.092 0 0 1 0-2.184h16.018a1.092 1.092 0 0 1 0 2.184zM12.127 22.666c.105-.01.207-.025.31-.043.021-.004.044-.005.066-.009.047-.01.093-.022.139-.033.198-.045.392-.101.577-.174v5.374h14.562v-5.374c.186.073.379.129.576.174.047.011.092.023.14.033.022.004.045.005.066.009a3.651 3.651 0 0 0 .674.061c.249 0 .492-.026.728-.069v7.35c0 .603-.489 1.092-1.092 1.092H12.127a1.092 1.092 0 0 1-1.092-1.092v-7.35c.236.043.479.069.728.069.123 0 .244-.006.364-.018z"/>
</svg>
