<svg xmlns="http://www.w3.org/2000/svg" width="41" height="41">
    <path fill="#FFF" fill-rule="evenodd" d="M20.5 41C9.196 41 0 31.804 0 20.5S9.196 0 20.5 0 41 9.196 41 20.5 31.804 41 20.5 41zm0-40C9.748 1 1 9.748 1 20.5S9.748 40 20.5 40 40 31.252 40 20.5 31.252 1 20.5 1zm8.945 29.586h-17.89c-.326 0-.588-.264-.588-.588 0-4.577 3.298-8.403 7.661-9.268-2.317-.781-3.999-2.936-3.999-5.495 0-3.212 2.634-5.826 5.871-5.826 3.238 0 5.872 2.614 5.872 5.826 0 2.56-1.682 4.714-3.999 5.495 4.362.865 7.66 4.691 7.66 9.268 0 .324-.262.588-.588.588z"/>
</svg>
