<svg xmlns="http://www.w3.org/2000/svg" width="12" height="12">
    <path fill="#326E51" fill-rule="evenodd" d="M11.935 9.49l-5.517 2.5c-.014.006-.029.009-.045.009-.02 0-.041-.005-.058-.016-.031-.02-.05-.055-.05-.091v-6.38c0-.042.025-.08.063-.097l5.517-2.499c.033-.015.072-.012.103.007.031.02.05.054.05.091v6.379c0 .042-.025.08-.063.097zM6.044 4.964c-.014.006-.029.009-.045.009-.015 0-.03-.003-.045-.009l-1.879-.89 5.359-2.536c.028-.014.062-.014.09-.002l1.856.816c.039.017.065.054.065.097 0 .042-.025.08-.063.098L6.044 4.964zM1.743 3.056L.617 2.547c-.038-.018-.063-.056-.063-.098.001-.043.026-.08.064-.097L5.956.006c.027-.012.059-.012.087 0l.921.405c.038.016.063.054.064.096 0 .042-.023.08-.061.098L1.743 3.056zM1.388 6.3c0 .03.017.056.044.069l2.124.998c.011.005.022.007.033.007.015 0 .029-.004.041-.011.023-.015.036-.039.036-.065V4.497l2.005.918c.038.017.063.055.063.097v6.38c0 .036-.019.071-.05.091-.018.011-.038.016-.058.016-.015 0-.031-.003-.045-.009L.064 9.49c-.038-.017-.063-.055-.063-.097V3.014c0-.037.019-.071.05-.091.03-.019.069-.022.103-.007l1.234.566V6.3z"/>
</svg>
