<svg xmlns="http://www.w3.org/2000/svg" width="41" height="41">
    <path fill="#FFF" fill-rule="evenodd" d="M20.5 41C9.196 41 0 31.804 0 20.5S9.196 0 20.5 0 41 9.196 41 20.5 31.804 41 20.5 41zm0-40C9.748 1 1 9.748 1 20.5S9.748 40 20.5 40 40 31.252 40 20.5 31.252 1 20.5 1zm4.949 30.088c-1.799 0-5.893-2.184-9.366-7.041-3.176-4.441-4.72-7.685-4.72-9.92 0-1.969 1.312-2.905 1.942-3.356l.138-.101c.742-.552 1.872-.758 2.41-.758.762 0 1.327.375 1.678 1.116.136.281 1.383 3.058 1.524 3.44.264.723.169 1.783-.666 2.404l-.114.08c-.172.126-.635.462-.673.696-.013.089.062.218.126.311 1.007 1.408 3.984 5.223 4.467 5.694.152.145.386.27.543.131.295-.257.452-.427.497-.476.015-.016.031-.032.047-.046l-.001-.001c.118-.111.558-.473 1.262-.473.478 0 .949.161 1.403.48.922.646 2.996 2.09 2.996 2.09l.054.042c.568.503.905 1.483.375 2.541-.444.877-2.014 3.147-3.922 3.147z"/>
</svg>
