<svg xmlns="http://www.w3.org/2000/svg" width="41" height="41">
    <path fill="#FFF" fill-rule="evenodd" d="M20.5 41C9.196 41 0 31.804 0 20.5S9.196 0 20.5 0 41 9.196 41 20.5 31.804 41 20.5 41zm0-40C9.748 1 1 9.748 1 20.5 1 31.253 9.748 40 20.5 40S40 31.253 40 20.5C40 9.748 31.252 1 20.5 1zm7.796 24.105c-.089.226-.306.375-.548.375h-9.984l.518 2.055h8.168c.102 0 .193.032.276.078.403.065.755.257 1.011.562.04.044.063.101.098.15.078.114.161.223.212.356.078.198.125.413.125.642 0 .973-.762 1.765-1.699 1.765-.939 0-1.702-.792-1.702-1.765 0-.217.05-.419.12-.611h-5.739c.069.192.119.394.119.611 0 .973-.762 1.765-1.701 1.765-.937 0-1.7-.792-1.7-1.765 0-.221.048-.427.121-.619.034-.094.088-.171.136-.256.047-.08.091-.159.15-.23.087-.109.185-.198.294-.283.029-.022.058-.042.089-.062.137-.093.28-.166.44-.215l-4.178-16.57H9.911c-.325 0-.588-.263-.588-.588 0-.325.263-.588.588-.588h3.469c.269 0 .505.183.57.444l1.368 5.423h15.77c.194 0 .376.096.486.257.109.16.132.365.062.546l-3.34 8.523z"/>
</svg>
